<svg width="10" height="10" viewBox="0 0 10 10" fill="none" xmlns="http://www.w3.org/2000/svg">
<path fill-rule="evenodd" clip-rule="evenodd" d="M9.16666 5.00016C9.16666 7.30135 7.30118 9.16683 4.99999 9.16683C2.69881 9.16683 0.833328 7.30135 0.833328 5.00016C0.833328 2.69898 2.69881 0.833496 4.99999 0.833496C7.30118 0.833496 9.16666 2.69898 9.16666 5.00016ZM4.99999 7.396C5.17258 7.396 5.31249 7.25608 5.31249 7.0835V4.5835C5.31249 4.41091 5.17258 4.271 4.99999 4.271C4.82741 4.271 4.68749 4.41091 4.68749 4.5835V7.0835C4.68749 7.25608 4.82741 7.396 4.99999 7.396ZM4.99999 2.91683C5.23011 2.91683 5.41666 3.10338 5.41666 3.3335C5.41666 3.56361 5.23011 3.75016 4.99999 3.75016C4.76988 3.75016 4.58333 3.56361 4.58333 3.3335C4.58333 3.10338 4.76988 2.91683 4.99999 2.91683Z" fill="white" fill-opacity="0.33"/>
</svg>
