<svg xmlns="http://www.w3.org/2000/svg" viewBox="0 0 1000 1000"><defs><style>.cls-1{fill:#f7c36f;}</style></defs><g id="Layer_9" data-name="Layer 9"><rect class="cls-1" width="1000" height="1000" rx="500"/><path d="M525.6,629.26c0-.23-.08-.45-.12-.68l0,0a5.24,5.24,0,0,1-.29-.71c-.35-.4-1.14-1.15-.24-.45l-.94-.74-.09,0c-.29-.12-.57-.26-.87-.38l-.72-.24-.57-.12a13.43,13.43,0,0,0-2.09-.27h-.12l-.85,0a19.92,19.92,0,0,0-2.19.32l-.32.06-.31.09-.89.28c-.76.25-1.51.54-2.24.85a37.24,37.24,0,0,0-3.45,1.7A67.27,67.27,0,0,0,501,634.8a108.22,108.22,0,0,0-12.74,12.52,4.93,4.93,0,0,1-1.14.95c1.08,3.77.71,7.88.4,11.83a70.17,70.17,0,0,1-.06,8.58,4,4,0,0,1-.12.62c0,.85-.06,1.71-.13,2.56a23.77,23.77,0,0,1-1.42,5.45l2.11-1.46q15.52-10.87,30.52-22.46c1.46-4.44,3.4-8.71,5-13.11.48-1.35.93-2.71,1.34-4.08l0-.1c.08-.31.16-.63.23-.94q.21-.87.36-1.74c.11-.62.2-1.25.26-1.87,0-.3,0-.61.06-.91,0,0,0,0,0,0h0C525.67,630.15,525.66,629.71,525.6,629.26Z"/><path d="M808.55,257a55.5,55.5,0,0,0-11-16.61c-9.86-10.34-22.67-18.6-39.17-25.24-14.92-6-31.45-8.8-52-8.8-3.39,0-6.85.07-10.57.23-4.21.17-8.5.45-12.65.73l-4.78.3c-1.73.11-3.51.16-5.43.16-4.43,0-8.87-.28-13.16-.56l-.36,0-.8,0-.65,0-.26,0-.25-.05c-11.64-2.3-23.32-5.23-34.62-8.07-4.64-1.17-9.27-2.33-13.88-3.45-19.31-4.67-35.4-7.57-50.62-9.1-6.46-.65-13.06-1.18-19.44-1.68-9.82-.78-20-1.59-29.95-2.88-7.4-1-14.06-2.12-20.34-3.57l-.2,0-.2-.07a120.35,120.35,0,0,1-17.55-8.25c-6.59-3.62-13.49-6.74-19.44-9.38A178,178,0,0,0,428.63,152h-1.36c-7.95,0-13.73,1.2-17.7,3.66s-7.36,6.09-10.85,11.53a76.12,76.12,0,0,0-7.84,16c-2.33,6.69-2.67,13.78-3,21.29A106.55,106.55,0,0,1,386,222.26a59.37,59.37,0,0,1-16.25,29.94,59.29,59.29,0,0,1,7.95,2.18c5.9,2.06,11.05,5.4,16,8.63,1.89,1.23,3.84,2.5,5.78,3.66,15.95,9.52,30.3,14.86,43.85,16.33a61.44,61.44,0,0,0,6.57.35,87.57,87.57,0,0,0,16.68-1.78c2.42-.47,4.89-1,7.29-1.51a156.21,156.21,0,0,1,17.88-3.1c2.29-.22,4.68-.33,7.11-.33,11,0,21.91,2.24,32.44,4.42,4.7,1,9.57,2,14.29,2.74,11.93,1.93,23.09,7.9,33.17,17.76,5.05,4.94,9.71,10.51,14.21,15.89,11.06,13.22,21.51,25.7,37.24,29.57,8.18,2,16.48,2.39,25.26,2.78,9.16.41,18.63.83,27.93,3.3,3.47.92,6.84,2.16,10.1,3.35,4.93,1.81,9.59,3.52,14.42,4.16,1.58.21,3.21.38,4.78.54,6.3.66,12.79,1.33,19,4.65.34,0,.68,0,1,.08a15.76,15.76,0,0,1,4.07,1.11,27.51,27.51,0,0,1,6.45,4,46.91,46.91,0,0,1,5.14,5.12c1.16,1.28,2.25,2.49,3.42,3.56a41.33,41.33,0,0,0,8.3,6.09l.82,0,1.1,0c10.22-5.43,18.44-14.67,25.1-28.21,8.29-16.87,13.16-35.56,17.87-53.64.51-2,1-3.93,1.54-5.89A97.35,97.35,0,0,0,808.55,257Zm-23.92-7.15a6,6,0,0,1-4.33,1.75,6.69,6.69,0,0,1-2.63-.54c-13.59.75-23.62,12.73-27.36,17.94-7.69,10.73-10.51,23.2-12.24,34-1.05,6.51-1.82,14,.44,20.59a50,50,0,0,0,8.23,14.62c3.86,4.85,7.29,7.31,11.12,8a9.68,9.68,0,0,0,1.63.15,4.64,4.64,0,0,0,4.25-2.2c1.76-2.63,2.39-6.31,2.81-9.9a105.68,105.68,0,0,0,.52-12.2,6.69,6.69,0,0,1,6.82-6.69,5.89,5.89,0,0,1,6,6,102.83,102.83,0,0,1-1,17.42c-.83,4.87-2.57,11.89-8,16.55a16.68,16.68,0,0,1-11.13,3.86,26.35,26.35,0,0,1-7.14-1.06c-6.16-1.74-11.84-6.24-17.37-13.75-4.9-6.65-8.18-13.21-9.75-19.49-2.4-9.65-1-19.78.49-27.53,1.45-7.54,3-14.89,5.94-21.8a73.7,73.7,0,0,1,11.34-18.49c10.26-12.2,23.07-18.92,36.08-18.92.76,0,1.53,0,2.29.07a6,6,0,0,1,5.62,4.7A6.86,6.86,0,0,1,784.63,249.84Z"/><path d="M544.73,631.72h0c-.21-.67-.4-1.34-.58-2,0-.12-.08-.25-.11-.38-.19-.75-.37-1.5-.51-2.26A119.84,119.84,0,0,1,541.4,610c-.1-2.79-.18-5.56-.55-8.34-.31-2.36-.62-4.8.3-7a3.88,3.88,0,0,1,1.91-2.52,4.66,4.66,0,0,1,1.87-.81,40.89,40.89,0,0,0,15.24-10.39,78.72,78.72,0,0,0,10.3-14.34c2.41-4.2,4-8.87,5.94-13.29l.81-1.82c.09-.18.17-.37.25-.55.22-.48.44-1,.67-1.46l.3-.62c.29-.61.58-1.22.89-1.83l.13-.27c.31-.61.63-1.22,1-1.82,3.25-6,7.56-11.59,13.87-13.42a139.12,139.12,0,0,0-27.19-10.18c-7-1.72-14-2.79-20.79-2-6,.72-11.13,3-14.65,7.37a23.92,23.92,0,0,0-4.66,9.52c-1.11,4.22-1.43,8.61-2,12.92A47,47,0,0,1,521.78,562c0,.07-.07.14-.1.22h0A29.44,29.44,0,0,1,516.5,570l-.09.1c-.39.42-.79.83-1.21,1.23l-.45.42c-.31.29-.61.58-.93.86-.48.41-1,.82-1.47,1.21-5.68,4.49-13,7.81-18.75,11.09-1.58.9-3.14,1.85-4.62,2.9-.66.46-1.3,1-1.92,1.46l-.74.62s-.67.63-.7.64a17.59,17.59,0,0,0-4.88,8.07,32.74,32.74,0,0,0-.92,10.79c.19,4.69.62,9.38,1.2,14,.63,5.17,1.39,10.38,2.48,15.51h0c.52-.57,1.07-1.13,1.6-1.69a105.36,105.36,0,0,1,13.43-12.19c5.7-4.24,12.63-8.35,19.93-8.61,6.41-.22,13.56,2.42,15.66,9a15.36,15.36,0,0,1,.51,2.16c0,.26.05.52.09.77,0,.47.11,1,.13,1.42,0,.32,0,.63,0,.95s0,.83,0,1.25-.07.7-.11,1.05-.08.76-.14,1.14-.13.76-.2,1.14-.13.68-.2,1-.2.84-.31,1.26-.14.56-.22.84c-.14.47-.27.95-.42,1.41-.05.19-.11.38-.17.56-.18.57-.37,1.14-.56,1.69h0c-.15.44-.3.89-.45,1.32-1,2.69-2,5.33-3.09,8-.91,4-1.83,8.08-2.49,12.17-.68,4.25-1.57,9.2,3.64,11.12a10.45,10.45,0,0,0,12.51-3.6c3.1-4,4.7-8.7,6-13.52.08-5,.23-10.18-.67-15.06C547.28,638.83,545.86,635.32,544.73,631.72Z"/><path d="M744.62,393.42a23.35,23.35,0,0,1-1-3.84c-2.72-2.6-5.05-5.58-7.89-8a17.16,17.16,0,0,0-3.67-2.63,5.17,5.17,0,0,1-.7-.21,7.75,7.75,0,0,0-1.45-.14,3,3,0,0,1-1.73-.2,9.2,9.2,0,0,1-3-1.33,3.72,3.72,0,0,1-.48-.41,29.11,29.11,0,0,0-7.6-2.1c-4-.57-8-.71-12-1.31a65.93,65.93,0,0,1-12.46-3.54c-8.25-3-16.28-5.43-25-6.33-16.8-1.73-34.42.14-50.28-7.29-21.66-10.14-33.14-33.49-50.79-48.54A47.68,47.68,0,0,0,553,299c-6.41-2.6-13.6-3.18-20.43-4.53-8.73-1.73-17.46-3.62-26.3-4.57-8.42-.91-16.63,0-24.92,1.7-8.09,1.62-16.15,3.75-24.37,4.41a82.52,82.52,0,0,1-24.32-1.73c-16.12-3.53-31.05-11.12-45.1-20.14-6.52-4.18-12.74-7.87-20.31-9.37a62.08,62.08,0,0,0-23.49.16l-3.15.56c-3.36,2.3-7.12,4-9.95,7a63.94,63.94,0,0,0-8.82,12.22c-4.56,8.14-4.19,17.8-5.15,26.8a117.08,117.08,0,0,1-7.7,30.07c-3.49,8.94-9.15,16.67-13.71,25-1.87,3.43-3.77,6.87-5.85,10.17a174.69,174.69,0,0,0-7.78,24.45c-.48,11.5-1.25,23.37-5,34.14-.6,1.27-1.19,2.56-1.76,3.85a2.49,2.49,0,0,0-.2.32c-3.63,7.52-7.59,14.86-11.9,22-4.09,6.73-8.79,13.33-10,21.48a25,25,0,0,0,.79,11.18,48.92,48.92,0,0,0,2,6.81c1.77,4.7,4.25,9.14,5.6,14a31.39,31.39,0,0,1,.5,14.25A76.43,76.43,0,0,1,254.5,542c-6.14,9-13.43,17.08-18.78,26.72-5.58,10-8.12,21.06-6.3,32.69.9,5.79,2.65,11.36,4.11,17a140.32,140.32,0,0,1,3.4,18,135.38,135.38,0,0,1-.24,34.19c-2,8.88-3.7,17.81-3.09,26.75a120.8,120.8,0,0,0-2.73,16.12c-1.21,12.61.23,24.63,7.7,35,5,6.88,10.85,6.87,15.64-.17,3.94-5.77,6.36-12.42,8.42-19.23,4.27-14.08,9.22-27.89,17-40.22,8.92-14.12,22.16-12.83,29.08,2.56,5.11,11.36,2.74,23.07,1.21,34.65-3,22.67-11.7,43.55-18.1,65.15-3.78,12.79-7.77,25.68-5.57,39.35,1.5,9.28,5.52,17.37,14.38,20.61s14.94-3.05,20.57-9.12a25.68,25.68,0,0,0,5.4-7.88c3.66-9.61,7.85-19.18,10-29.22,6.05-28.06,12.95-55.64,26-81.12C372.22,705.16,381,686,395,670.46c8-8.8,16.7-16.06,28.31-18.19,12.9-2.36,21.43,6.38,20,20.19-.76,7.16-3.22,13.76-5.31,20.49a73.12,73.12,0,0,0-3.77,21.67c0,6.53.77,13,7.51,15.5s11.08-2.52,14.69-7.58c3.93-5.51,6.85-11.7,9.74-17.95a32.77,32.77,0,0,1,1.43-4c.2-.51.37-1,.54-1.55.05-.3.13-.59.17-.91.27-2.76,1.17-5.42,1.65-8.15,1-5.44,3.32-10.44,4.5-15.81a58.31,58.31,0,0,0,1.69-16.1c-.39-5.69-.29-11.63-1.62-17.21h0a187.82,187.82,0,0,1-3-19.87c-1-9.86-2.37-21,2.54-30.08,3.87-7.18,10.42-11.47,17.41-15.24,6.65-3.59,14.26-6.71,19.23-12.89,5.46-6.78,5.06-16,6.46-24.18,1.49-8.62,5.07-16.93,12.18-22.35,12.56-9.59,30.23-6.76,44.28-2.7a165.55,165.55,0,0,1,33.55,14.24c.4.16.81.31,1.2.49a31.6,31.6,0,0,1,3.65,2.13c.58.32,1.17.61,1.73.94a2,2,0,0,1,.26.06,10.36,10.36,0,0,1,3.5,2c4,3.39,8,8.66,8.7,14,.44,3.64-1,6.84-2,10.26a14.55,14.55,0,0,0,.47,8.87,7.74,7.74,0,0,0,1.55,2.83c4.51,1.31,8.87.22,13-2.66,5.69-4,9.64-9.42,12.78-15.94,4.25-8.82,3.13-18,3.17-27.17-.42-3.21-1.73-6.42-2.46-9.51a40.38,40.38,0,0,1-1.17-12.08c.27-3.58,1.86-6.86,2-10.47.17-4.31.14-8.63.15-12.94a122.53,122.53,0,0,0-.59-12.85c-.4-3.88-1-7.75-1.06-11.65a54.79,54.79,0,0,1,.69-12.53c.72-3.38,2.76-6.12,3.79-9.39.75-2.38,3.88-3.37,6-2.48a4.73,4.73,0,0,1,2.48,6l-.06.16a4.71,4.71,0,0,1-.15,1.11c-4.32,16.21.76,32.69-1.25,49a21.54,21.54,0,0,0-.49,3.74h.07c1.25.07,3.71-1.18,5.13-2.15a14,14,0,0,0,4.79-5.31,116.2,116.2,0,0,0,8.17-16.79,38.65,38.65,0,0,0,2.71-9.21,67.16,67.16,0,0,0,.28-8.86,47.92,47.92,0,0,0-.81-9.41,40.1,40.1,0,0,1-1.2-9,2.83,2.83,0,0,1,.07-.42,10.54,10.54,0,0,0-.64-3.23c-2.22-5.5,6.33-8.91,8.56-3.41,1.42,3.53.61,7.56,2.35,10.9a31.06,31.06,0,0,0,1.92,3,1.67,1.67,0,0,1,.16.12l.33.33c.3.11.59.22.9.31l.64.13a4.69,4.69,0,0,1,.75,0,6.13,6.13,0,0,0,1.25-.42,7.45,7.45,0,0,0,2.92-2.32,16.34,16.34,0,0,0,2.36-6.58A165.8,165.8,0,0,0,706,408.62c.25-3.9.43-7.81.61-11.72a42.78,42.78,0,0,1,.48-5.65,28.54,28.54,0,0,0,.9-4.76,3.34,3.34,0,0,1,.56-1.77,4.6,4.6,0,0,1,5.16-3.88,46.72,46.72,0,0,0,8.29,1.45h0l.12,0h.45c.16,0,.32,0,.48,0h.23l.32,0c2.29.16,4.33,1.44,4.64,4,.27,2.26-1.52,5.13-4,5.13-.14,0-.27,0-.41,0l-.13,0a24.61,24.61,0,0,1-6.18-.34c-.31-.05-.61-.12-.91-.19-.2.82-.41,1.64-.53,2.48-.31,2.29-.35,4.6-.46,6.9-.23,4.66-.41,9.33-.85,14-.66,6.91-1,14.75-3.68,21.22a17.49,17.49,0,0,1-3.59,5.52A26.76,26.76,0,0,1,697.11,449c-2.44,1.1-2.88,2.51-3,4.86-.48,12-5.86,21.6-11.89,30.84a34.45,34.45,0,0,1-4,6.3c-.28.34-.6.65-.91,1-2.69,3.58-6.11,6.35-10.76,6.86-3.67.39-5.34,2.61-5.42,6.49,0,.9-.1,1.8-.19,2.72a83.24,83.24,0,0,0,1.94,8.8c9.26-10.73,18.93-19.54,26.55-30.56,16.27-23.57,30.13-48.7,42.7-74.68,2.94-6.07,6.66-10.93,11.65-14.27a5.42,5.42,0,0,1,.29-.72c.19-.39.37-.77.53-1.16a6.88,6.88,0,0,0,.1-.9A7.74,7.74,0,0,0,744.62,393.42ZM252.77,622.74c0,.18-.06.37-.08.55s-.08.56-.13.83a15.37,15.37,0,0,1-.64,2.17c0,.08-.19.65-.2.61l-.06.46c0,.19,0,.37,0,.56.09,2-.46,4.42.61,6.2s2.46,3.67,2.61,5.94a4.51,4.51,0,0,1-2.71,4.6,12.06,12.06,0,0,1-5.07.42c-1.6-.05-3.31.1-4.71-1.11-1.77-1.52-1.71-3.58-.87-5.49,0,0,0,0,0-.06.9-2.6,2.5-4.88,3.28-7.54a17.22,17.22,0,0,0,.4-3.79c0-.05,0-.1,0-.14-.11-1-.25-2-.45-3a20.14,20.14,0,0,0-1.8-5.51s-.14-.26-.19-.37l-.21-.33a12.38,12.38,0,0,0-.86-1.19s-.15-.16-.23-.25l-.24-.22a8.83,8.83,0,0,0-1.11-.82,2.77,2.77,0,0,1-.47-3.87,2.51,2.51,0,0,1,1.48-1,3.18,3.18,0,0,1,.64-.19,29.54,29.54,0,0,1,7.56-.68c3,.11,5.89,2,5.68,5.26a7.49,7.49,0,0,1-.4,1.84c0,.14,0,.27-.05.41a13.75,13.75,0,0,1-.94,2.48c-.3,1-.56,1.91-.86,3.06C252.7,623,252.69,623,252.77,622.74Zm28.92,29c-3.18,9-6.92,15.8-12.18,21.48-1.78,1.92-4,3.76-6.76,2-2.52-1.59-2.63-4.37-2.1-6.88-.75-3.22.25-6.84.37-10,.14-4-1.44-7.85-1.21-11.83.24-4.21,3.91-6,7.5-7.12,1.47-.45,3.46-.73,4.65-1.78a10.84,10.84,0,0,0,1.84-2.45c.85-2.35,2.54-4.41,5.22-4.2,4.1.32,4.74,4.37,4.89,8A29.9,29.9,0,0,1,281.69,651.76Zm-.48-83.18c-5.89-7.42-8.91-17.64-6.4-27.45,3.41-13.29,8.53-26.13,12.14-39.38,2.24-8.23,2.79-16.91,4.65-25.26,3.55-15.89,12.76-22.87,27.71-22.46,19.1,1.35,36,6.32,51.43,15.75,16.08,9.85,22.14,26.93,13.77,44.66a126.36,126.36,0,0,1-7.84,14.19,149.91,149.91,0,0,1-14.29,16.44q-23.46,13.77-47.22,27c-4.72,2-9.52,3.44-14.87,3C293.52,574.62,287.08,571.9,281.21,568.58Zm28.42,88.27c-1.27,2.8-2.36,6.82-6.37,5.62s-5.5-4.68-5.48-8.89c.05-9.38,5.19-17,7.8-25.55q3-8.43,6-16.86a18.92,18.92,0,0,1,5.17-8c2.11-1.87,4.27-1.45,6.43-.34,2.52,1.3,2.92,3.55,2,6.21-1.18,3.6-2,7.37-3.62,10.75a104.19,104.19,0,0,0-9,27.79A36.78,36.78,0,0,1,309.63,656.85ZM323,681.62a5.61,5.61,0,0,1-6.15-3.34c-.93-2.27-.2-4.94.84-7,1.19-2.41,2.9-4.46,4.3-6.73a30.9,30.9,0,0,0,2.66-6.2c1.56-4.53,1-9.06,1.39-13.75a20.55,20.55,0,0,1,1.39-6.07,13,13,0,0,1,3.81-9.09,5,5,0,0,1,5.35-1.4,6.54,6.54,0,0,1,5.59,7.9,17.83,17.83,0,0,1-2.44,5.41c-.37.62-.76,1.22-1.15,1.83-.09.14-.53.88-.62,1-2,3.91-1.38,8.73-1.51,13a28.9,28.9,0,0,1-1.35,8.2,70.81,70.81,0,0,1-3,6.8c-.87,1.94-1.35,4-2.75,5.71A11.2,11.2,0,0,1,323,681.62Zm40.51-25.82c-.09,2.65-1.12,5.27-1.84,8.4a102.39,102.39,0,0,1-5.36,9.37c-5.23,7.4-7.93,15.72-9,24.85-.65,5.69-1.47,11.49-4.53,16.33-1.79,2.83-4,5.91-8,5.17-3.47-.64-4.85-3.61-6-6.69-2-5.31-1.71-10.46.08-15.89,5.44-16.58,15.42-30.62,22.14-46.48,1.51-3.56,3.74-9.23,8.63-7.33S363.66,651.25,363.51,655.8Zm29.61-4.14c-.16,2.08-1.36,4.36-2.27,6.21-1,2-2.12,4-3.21,6-.4.7-.81,1.4-1.24,2.09l-.36.58-.09.15-.29.55c-.1.22-.17.44-.25.67a16.64,16.64,0,0,1-.63,1.66l-.06.11c0,.11,0,.23,0,.34a9.74,9.74,0,0,1-.71,2.36s-.06.1-.08.15a8.63,8.63,0,0,1-1.87,3.94,12.75,12.75,0,0,1-10.08,2.4,6.25,6.25,0,0,1-3.28-8,9.18,9.18,0,0,1,4.08-4.23l1.81-1,.51-.3.77-.53a5,5,0,0,0,.44-.49c-.21.4-.18.35.08-.15.14-.27.27-.54.4-.82s.36-.84.52-1.26c.38-1,.7-2,1.06-3,.27-.76.56-1.5.85-2.25,0-.45.07-.89.14-1.34.14-.8.31-1.6.4-2.41s.14-1.39.25-2.08a14,14,0,0,1,.92-3.55,8.2,8.2,0,0,1,.4-.78,7.74,7.74,0,0,1,.72-1.29,4.15,4.15,0,0,1,.58-.62,4.37,4.37,0,0,1,.51-.48,6.88,6.88,0,0,1,1.09-.61,5,5,0,0,1,2.44-.28,4.36,4.36,0,0,1,1.62.58l.17.06.22.09a13.9,13.9,0,0,1,1.24.73,1.09,1.09,0,0,1,.17.13c.18.15.34.34.51.51a6.38,6.38,0,0,1,1.77,2.2A7.47,7.47,0,0,1,393.12,651.66Zm11.22-246.84c-.16.24-.34.49-.52.74-4.94,8.93-13.07,15.06-24.89,17.33-9.89,1.9-19.76,3.95-29.87,6-6.36-1.07-12.93-1.33-18.9-3.33-18.53-6.22-24.44-20.81-16.25-38.48Q329.5,353.43,345,319.79c10.26-22.26,41.44-30.48,61-15.67a32.26,32.26,0,0,1,2.61,2.25,32.23,32.23,0,0,1,3.74,2.73,18.21,18.21,0,0,1,4.39,6.26,90.18,90.18,0,0,1,5.34,15.56c1.27,5.19,1.28,10.35,1.06,15.66a131.91,131.91,0,0,1-1.61,16.24,91.48,91.48,0,0,1-9,27.62A135.84,135.84,0,0,1,404.34,404.82ZM452.1,633.41c-4.77,6.83-13.14,10.53-21.25,8.07-7.35-2.24-11.37-8.38-11.12-15.93a33.25,33.25,0,0,1,2.08-9.58,35.62,35.62,0,0,0,1.93-12.41c-.28-8.7-2.86-17.16-3.95-25.77-.75-5.89,8.39-7,9.14-1.12,1.06,8.36,3.51,16.57,3.91,25A45.45,45.45,0,0,1,432.1,613c-.67,3.29-2.09,6.62-2.74,9.7a19.4,19.4,0,0,0-.5,3.79c0,.22,0,.62.09,1.16a7.65,7.65,0,0,0,.18,1.05,8.66,8.66,0,0,0,.45,1.17c.11.19.7,1,.65.94a6.71,6.71,0,0,0,2.55,1.58c5.24,2.1,10.36-1.29,12.84-5.95,3.51-6.61.83-14.66.76-21.74,0-2.49,1.31-4.79,4-5.13,2.28-.27,5.11,1.52,5.13,4,.06,5.32,1.09,10.57,1,15.9A24.6,24.6,0,0,1,452.1,633.41ZM570.69,388.07a103.94,103.94,0,0,1-20,37.74c-1.35,2.15-2.73,4.28-4.18,6.37-10.6,15.33-25.63,20.6-42.24,21a58.27,58.27,0,0,1-11.47,2.55c-8.22.84-16.45-2.08-24-5.31a78.54,78.54,0,0,1-16.38-6.8c-1.24-.69-2.5-1.39-3.74-2.15A26.26,26.26,0,0,1,444,439c-11.59-8-11.29-25.57-10.19-38,.13-1.47.29-2.93.44-4.4.13-5.13.13-10.33.58-15.44a32.6,32.6,0,0,1,1.57-7.76,67.54,67.54,0,0,1,4-11.66,33.65,33.65,0,0,1,2-4.24,11.11,11.11,0,0,1,.78-1.88,10.86,10.86,0,0,1,5-5.06,5.83,5.83,0,0,1,3.47-.4A6.89,6.89,0,0,1,455,352a10.41,10.41,0,0,1,4.72,6.55c.56,4.07-.31,8.59-1.54,12.63-4.61,15.09-3.28,30.3-1.52,45.53.67,5.84,3.23,10.39,8.5,10.53,2-18.23,1.27-36.76,6.7-53.25,3.19-9.7,8.44-18.72,14.32-28.14,1.05-1.56,2.11-3.12,3.24-4.63a42.23,42.23,0,0,1,8.28-8.86,25.83,25.83,0,0,1,2.51-1.65c.91-.53,2-.89,2.82-1.5a4,4,0,0,0,0-6.45c-1.8-1.2-4.4-.51-6.3.09a36.41,36.41,0,0,0-6.35,2.91c-4.8,2.63-9.59,5.29-14.13,8.35l-.06.05c-2.42.05-4.66-1-6.46-3.95-3.95-6.55.75-10.65,5.93-14.17,37.08-25.22,85.47-4.87,95.88,40.18C574.1,367.23,574.13,377.88,570.69,388.07Z"/><path d="M613,539.64c-2.8-2.5-6.37-2.88-9.95-2.49a14,14,0,0,0-9.18,4.41,14.36,14.36,0,0,0-1.65,2.24,35.5,35.5,0,0,0-3.31,4.81,132.4,132.4,0,0,0-6.49,13.93,88.42,88.42,0,0,1-7.51,14.2c-6.28,9.65-14.53,17.94-25.15,22.5,0,.16.07.33.09.5.19,1.37.37,2.73.46,4.1.2,2.67.15,5.35.35,8a114.22,114.22,0,0,0,1.72,12.93c1-.94,2.08-1.84,3.09-2.78,20.57-19.19,39.64-39.92,58-61.17a2.36,2.36,0,0,0,.61-.61l.25-.38.27-.31s0-.08,0-.12l.06-.09h0s0,0,0,0a16.68,16.68,0,0,0,2.92-9.7A14,14,0,0,0,613,539.64Z"/><path d="M299,724.63c.16-1.18.32-2.37.49-3.56,1.33-9.55,2.47-17.79-.82-25.11-2-4.48-4.19-5.88-4.75-5.88s-2.68,1.15-4.92,4.69c-7.3,11.55-12,25-15.53,36.73l-8.51,43.57-5.55,28.41a5.63,5.63,0,0,0,.23,2.9c0,.06,0,.12,0,.17a4.63,4.63,0,0,0,3.85,5.8,3.23,3.23,0,0,0,2.52.16q5-1.62,9.93-3.47a180.43,180.43,0,0,1,5.05-19.89l.31-1c1.9-6.41,4-12.77,6-18.93C292.27,754,297,739.73,299,724.63Z"/><path d="M427.42,662.93a11.3,11.3,0,0,0-2.09.21c-7.38,1.35-14,5.75-22.11,14.73-11.23,12.42-18.9,27.59-27,43.65-1.25,2.46-2.49,4.92-3.74,7.37a220.85,220.85,0,0,0-13.84,34.37c18.38-12.18,36.56-24.7,54.85-37q4.93-3.33,9.89-6.64c-.19-2.06-.19-3.82-.19-5,0-7.62,1.35-15.55,4.26-24.93.39-1.25.79-2.5,1.19-3.75,1.64-5.09,3.19-9.91,3.69-14.64.33-3.13-.18-5.8-1.38-7.13C430.67,663.86,429.84,662.93,427.42,662.93Z"/><path d="M375.52,312.83a2.63,2.63,0,0,0-.77-.86,9.31,9.31,0,0,0-4.4-1.73,3.62,3.62,0,0,0-2.93,1.14,5.4,5.4,0,0,0-.45.52c-.68.44-1.33.9-2,1.39a1.76,1.76,0,0,0-.34.27c-9.11,7.39-11.85,19.72-16.27,30.23-5.51,13.06-14.54,24.33-19.58,37.6-2.75,7.22-4.37,14.85-3.6,22.6a3,3,0,0,0,2.2,2.86,2.19,2.19,0,0,0,3.43-1.36c5.12-16.61,11.73-32.69,18.7-48.6,3.35-7.64,6.59-15.38,10.3-22.86,3.33-6.73,7.92-13.49,15.36-16C377.5,317.26,377.16,313.83,375.52,312.83Z"/><path d="M299.21,533.06q4.23-12.66,7.68-25.56,1.67-6.22,3.14-12.5a64.51,64.51,0,0,1,3-10.21,20.89,20.89,0,0,1,2.94-5.1c1.22-1.51,2.89-2.63,4-4.23,1.85-2.72,1.32-7.47-2.31-8.43h-.05a7.12,7.12,0,0,0-1.49-.52,2,2,0,0,0-1-.26,2.76,2.76,0,0,0-.43.07,7.6,7.6,0,0,0-5.3,1.76,7.19,7.19,0,0,0-2.25,3.27c-.32.52-.61,1.06-.89,1.61a31.12,31.12,0,0,0-2.85,7c-2,6.9-3.56,13.91-5.15,20.9s-3.19,14.05-5.12,21a198.05,198.05,0,0,1-7.34,20.75,19,19,0,0,0-1.73,8.31c-.25,3,.69,6.15,3.53,7.56a5.09,5.09,0,0,0,7.08-2.46,8.14,8.14,0,0,0,.1-4.79,10.55,10.55,0,0,1,.3-6.14C296.35,541,297.86,537.08,299.21,533.06Z"/></g></svg>