<?xml version="1.0" encoding="UTF-8"?><svg id="Layer_2" xmlns="http://www.w3.org/2000/svg" viewBox="0 0 581 700.05"><defs><style>.cls-1{fill:#f7c36f;}</style></defs><g id="Layer_1-2"><g id="Layer_9"><path class="cls-1" d="M296.76,477.26c0-.23-.08-.45-.12-.68h0c-.11-.23-.21-.47-.29-.71-.35-.4-1.14-1.15-.24-.45l-.94-.74h-.09c-.29-.12-.57-.26-.87-.38l-.72-.24-.57-.12c-.69-.14-1.39-.23-2.09-.27h-.97c-.74,.07-1.47,.17-2.19,.32l-.32,.06-.31,.09-.89,.28c-.76,.25-1.51,.54-2.24,.85-1.18,.51-2.33,1.07-3.45,1.7-2.91,1.73-5.68,3.68-8.3,5.83-4.58,3.82-8.85,8-12.74,12.52-.33,.37-.71,.69-1.14,.95,1.08,3.77,.71,7.88,.4,11.83,.16,2.86,.14,5.72-.06,8.58-.02,.21-.06,.42-.12,.62,0,.85-.06,1.71-.13,2.56-.26,1.87-.73,3.7-1.42,5.45l2.11-1.46c10.35-7.25,20.52-14.73,30.52-22.46,1.46-4.44,3.4-8.71,5-13.11,.48-1.35,.93-2.71,1.34-4.08v-.1c.08-.31,.16-.63,.23-.94,.14-.58,.26-1.16,.36-1.74,.11-.62,.2-1.25,.26-1.87,0-.3,0-.61,.06-.91h0c0-.49-.01-.93-.07-1.38Z"/><path class="cls-1" d="M579.71,105c-2.63-6.15-6.36-11.78-11-16.61-9.86-10.34-22.67-18.6-39.17-25.24-14.92-6-31.45-8.8-52-8.8-3.39,0-6.85,.07-10.57,.23-4.21,.17-8.5,.45-12.65,.73l-4.78,.3c-1.73,.11-3.51,.16-5.43,.16-4.43,0-8.87-.28-13.16-.56h-2.07l-.25-.05c-11.64-2.3-23.32-5.23-34.62-8.07-4.64-1.17-9.27-2.33-13.88-3.45-19.31-4.67-35.4-7.57-50.62-9.1-6.46-.65-13.06-1.18-19.44-1.68-9.82-.78-20-1.59-29.95-2.88-7.4-1-14.06-2.12-20.34-3.57h-.2l-.2-.07c-6.06-2.27-11.93-5.03-17.55-8.25-6.59-3.62-13.49-6.74-19.44-9.38-7.33-3.41-14.88-6.32-22.6-8.71h-1.36c-7.95,0-13.73,1.2-17.7,3.66s-7.36,6.09-10.85,11.53c-3.23,5.01-5.86,10.38-7.84,16-2.33,6.69-2.67,13.78-3,21.29-.13,5.97-.76,11.92-1.88,17.78-2.38,11.35-8.02,21.76-16.25,29.94,2.7,.54,5.35,1.27,7.95,2.18,5.9,2.06,11.05,5.4,16,8.63,1.89,1.23,3.84,2.5,5.78,3.66,15.95,9.52,30.3,14.86,43.85,16.33,2.18,.23,4.38,.35,6.57,.35,5.6-.06,11.19-.65,16.68-1.78,2.42-.47,4.89-1,7.29-1.51,5.89-1.38,11.86-2.41,17.88-3.1,2.29-.22,4.68-.33,7.11-.33,11,0,21.91,2.24,32.44,4.42,4.7,1,9.57,2,14.29,2.74,11.93,1.93,23.09,7.9,33.17,17.76,5.05,4.94,9.71,10.51,14.21,15.89,11.06,13.22,21.51,25.7,37.24,29.57,8.18,2,16.48,2.39,25.26,2.78,9.16,.41,18.63,.83,27.93,3.3,3.47,.92,6.84,2.16,10.1,3.35,4.93,1.81,9.59,3.52,14.42,4.16,1.58,.21,3.21,.38,4.78,.54,6.3,.66,12.79,1.33,19,4.65,.34,0,.68,0,1,.08,1.4,.19,2.77,.56,4.07,1.11,2.32,1.03,4.5,2.38,6.45,4,1.84,1.57,3.56,3.28,5.14,5.12,1.16,1.28,2.25,2.49,3.42,3.56,2.5,2.37,5.29,4.41,8.3,6.09h1.92c10.22-5.43,18.44-14.67,25.1-28.21,8.29-16.87,13.16-35.56,17.87-53.64,.51-2,1-3.93,1.54-5.89,3.59-13.37,4.28-27.35,2.04-41.01Zm-23.92-7.15c-1.15,1.14-2.71,1.78-4.33,1.75-.9,0-1.8-.18-2.63-.54-13.59,.75-23.62,12.73-27.36,17.94-7.69,10.73-10.51,23.2-12.24,34-1.05,6.51-1.82,14,.44,20.59,1.9,5.3,4.68,10.24,8.23,14.62,3.86,4.85,7.29,7.31,11.12,8,.54,.1,1.08,.15,1.63,.15,1.71,.11,3.35-.74,4.25-2.2,1.76-2.63,2.39-6.31,2.81-9.9,.41-4.05,.58-8.13,.52-12.2,0-3.69,2.99-6.69,6.69-6.69,.04,0,.09,0,.13,0,3.25-.06,5.94,2.53,6,5.78,0,.07,0,.15,0,.22,.16,5.82-.17,11.65-1,17.42-.83,4.87-2.57,11.89-8,16.55-3.12,2.6-7.07,3.97-11.13,3.86-2.42-.02-4.82-.38-7.14-1.06-6.16-1.74-11.84-6.24-17.37-13.75-4.9-6.65-8.18-13.21-9.75-19.49-2.4-9.65-1-19.78,.49-27.53,1.45-7.54,3-14.89,5.94-21.8,2.85-6.69,6.67-12.92,11.34-18.49,10.26-12.2,23.07-18.92,36.08-18.92,.76,0,1.53,0,2.29,.07,2.72,.11,5.03,2.04,5.62,4.7,.55,2.62-.48,5.32-2.63,6.91h0Z"/><path class="cls-1" d="M315.89,479.72h0c-.21-.67-.4-1.34-.58-2,0-.12-.08-.25-.11-.38-.19-.75-.37-1.5-.51-2.26-1.12-5.63-1.83-11.34-2.13-17.08-.1-2.79-.18-5.56-.55-8.34-.31-2.36-.62-4.8,.3-7,.25-1.07,.94-1.99,1.91-2.52,.56-.4,1.19-.68,1.87-.81,5.8-2.26,11.02-5.81,15.24-10.39,3.96-4.38,7.42-9.19,10.3-14.34,2.41-4.2,4-8.87,5.94-13.29l.81-1.82c.09-.18,.17-.37,.25-.55,.22-.48,.44-1,.67-1.46l.3-.62c.29-.61,.58-1.22,.89-1.83l.13-.27c.31-.61,.63-1.22,1-1.82,3.25-6,7.56-11.59,13.87-13.42-8.68-4.33-17.8-7.74-27.19-10.18-7-1.72-14-2.79-20.79-2-6,.72-11.13,3-14.65,7.37-2.25,2.78-3.84,6.04-4.66,9.52-1.11,4.22-1.43,8.61-2,12.92-.47,4.42-1.57,8.74-3.26,12.85,0,.07-.07,.14-.1,.22h0c-1.3,2.85-3.05,5.48-5.18,7.78l-.09,.1c-.39,.42-.79,.83-1.21,1.23l-.45,.42c-.31,.29-.61,.58-.93,.86-.48,.41-1,.82-1.47,1.21-5.68,4.49-13,7.81-18.75,11.09-1.58,.9-3.14,1.85-4.62,2.9-.66,.46-1.3,1-1.92,1.46l-.74,.62s-.67,.63-.7,.64c-2.33,2.2-4.02,4.99-4.88,8.07-.9,3.52-1.21,7.17-.92,10.79,.19,4.69,.62,9.38,1.2,14,.63,5.17,1.39,10.38,2.48,15.51h0c.52-.57,1.07-1.13,1.6-1.69,4.12-4.44,8.61-8.52,13.43-12.19,5.7-4.24,12.63-8.35,19.93-8.61,6.41-.22,13.56,2.42,15.66,9,.22,.71,.39,1.43,.51,2.16,0,.26,.05,.52,.09,.77,0,.47,.11,1,.13,1.42v2.2c0,.42-.07,.7-.11,1.05s-.08,.76-.14,1.14-.13,.76-.2,1.14-.13,.68-.2,1-.2,.84-.31,1.26-.14,.56-.22,.84c-.14,.47-.27,.95-.42,1.41-.05,.19-.11,.38-.17,.56-.18,.57-.37,1.14-.56,1.69h0c-.15,.44-.3,.89-.45,1.32-1,2.69-2,5.33-3.09,8-.91,4-1.83,8.08-2.49,12.17-.68,4.25-1.57,9.2,3.64,11.12,4.5,1.86,9.69,.37,12.51-3.6,3.1-4,4.7-8.7,6-13.52,.08-5,.23-10.18-.67-15.06-.69-3.65-2.11-7.16-3.24-10.76Z"/><path class="cls-1" d="M515.78,241.42c-.44-1.25-.78-2.53-1-3.84-2.72-2.6-5.05-5.58-7.89-8-1.1-1.03-2.34-1.92-3.67-2.63-.24-.05-.47-.12-.7-.21-.48-.09-.96-.14-1.45-.14-.58,.11-1.19,.04-1.73-.2-1.07-.26-2.09-.71-3-1.33-.17-.12-.33-.26-.48-.41-2.43-1.04-4.98-1.75-7.6-2.1-4-.57-8-.71-12-1.31-4.26-.77-8.43-1.95-12.46-3.54-8.25-3-16.28-5.43-25-6.33-16.8-1.73-34.42,.14-50.28-7.29-21.66-10.14-33.14-33.49-50.79-48.54-4.01-3.6-8.6-6.49-13.57-8.55-6.41-2.6-13.6-3.18-20.43-4.53-8.73-1.73-17.46-3.62-26.3-4.57-8.42-.91-16.63,0-24.92,1.7-8.09,1.62-16.15,3.75-24.37,4.41-8.15,.63-16.34,.05-24.32-1.73-16.12-3.53-31.05-11.12-45.1-20.14-6.52-4.18-12.74-7.87-20.31-9.37-7.77-1.44-15.74-1.39-23.49,.16l-3.15,.56c-3.36,2.3-7.12,4-9.95,7-3.41,3.71-6.37,7.81-8.82,12.22-4.56,8.14-4.19,17.8-5.15,26.8-1.22,10.32-3.81,20.43-7.7,30.07-3.49,8.94-9.15,16.67-13.71,25-1.87,3.43-3.77,6.87-5.85,10.17-3.19,7.95-5.79,16.12-7.78,24.45-.48,11.5-1.25,23.37-5,34.14-.6,1.27-1.19,2.56-1.76,3.85-.07,.1-.14,.21-.2,.32-3.63,7.52-7.59,14.86-11.9,22-4.09,6.73-8.79,13.33-10,21.48-.59,3.74-.32,7.56,.79,11.18,.5,2.32,1.17,4.59,2,6.81,1.77,4.7,4.25,9.14,5.6,14,1.26,4.65,1.43,9.52,.5,14.25-1.98,4.48-4.38,8.75-7.18,12.77-6.14,9-13.43,17.08-18.78,26.72-5.58,10-8.12,21.06-6.3,32.69,.9,5.79,2.65,11.36,4.11,17,1.52,5.92,2.66,11.93,3.4,18,1.37,11.36,1.28,22.85-.24,34.19-2,8.88-3.7,17.81-3.09,26.75-1.27,5.31-2.19,10.69-2.73,16.12-1.21,12.61,.23,24.63,7.7,35,5,6.88,10.85,6.87,15.64-.17,3.94-5.77,6.36-12.42,8.42-19.23,4.27-14.08,9.22-27.89,17-40.22,8.92-14.12,22.16-12.83,29.08,2.56,5.11,11.36,2.74,23.07,1.21,34.65-3,22.67-11.7,43.55-18.1,65.15-3.78,12.79-7.77,25.68-5.57,39.35,1.5,9.28,5.52,17.37,14.38,20.61s14.94-3.05,20.57-9.12c2.28-2.27,4.11-4.94,5.4-7.88,3.66-9.61,7.85-19.18,10-29.22,6.05-28.06,12.95-55.64,26-81.12,9.62-18.67,18.4-37.83,32.4-53.37,8-8.8,16.7-16.06,28.31-18.19,12.9-2.36,21.43,6.38,20,20.19-.76,7.16-3.22,13.76-5.31,20.49-2.34,6.99-3.61,14.3-3.77,21.67,0,6.53,.77,13,7.51,15.5s11.08-2.52,14.69-7.58c3.93-5.51,6.85-11.7,9.74-17.95,.39-1.36,.87-2.7,1.43-4,.2-.51,.37-1,.54-1.55,.05-.3,.13-.59,.17-.91,.27-2.76,1.17-5.42,1.65-8.15,1-5.44,3.32-10.44,4.5-15.81,1.31-5.26,1.88-10.68,1.69-16.1-.39-5.69-.29-11.63-1.62-17.21h0c-1.35-6.57-2.36-13.2-3-19.87-1-9.86-2.37-21,2.54-30.08,3.87-7.18,10.42-11.47,17.41-15.24,6.65-3.59,14.26-6.71,19.23-12.89,5.46-6.78,5.06-16,6.46-24.18,1.49-8.62,5.07-16.93,12.18-22.35,12.56-9.59,30.23-6.76,44.28-2.7,11.67,3.5,22.92,8.27,33.55,14.24,.4,.16,.81,.31,1.2,.49,1.26,.63,2.48,1.34,3.65,2.13,.58,.32,1.17,.61,1.73,.94,.09,.01,.17,.03,.26,.06,1.29,.43,2.48,1.11,3.5,2,4,3.39,8,8.66,8.7,14,.44,3.64-1,6.84-2,10.26-.77,2.93-.61,6.03,.47,8.87,.31,1.04,.84,2.01,1.55,2.83,4.51,1.31,8.87,.22,13-2.66,5.69-4,9.64-9.42,12.78-15.94,4.25-8.82,3.13-18,3.17-27.17-.42-3.21-1.73-6.42-2.46-9.51-1-3.94-1.39-8.02-1.17-12.08,.27-3.58,1.86-6.86,2-10.47,.17-4.31,.14-8.63,.15-12.94,.03-4.29-.17-8.58-.59-12.85-.4-3.88-1-7.75-1.06-11.65-.25-4.19-.02-8.39,.69-12.53,.72-3.38,2.76-6.12,3.79-9.39,.75-2.38,3.88-3.37,6-2.48,2.29,1.03,3.37,3.66,2.48,6l-.06,.16c0,.37-.06,.75-.15,1.11-4.32,16.21,.76,32.69-1.25,49-.27,1.23-.44,2.48-.49,3.74h.07c1.25,.07,3.71-1.18,5.13-2.15,2.03-1.33,3.68-3.16,4.79-5.31,3.17-5.37,5.9-10.98,8.17-16.79,1.28-2.95,2.19-6.04,2.71-9.21,.29-2.94,.38-5.9,.28-8.86,.04-3.16-.23-6.31-.81-9.41-.74-2.94-1.14-5.96-1.2-9,.01-.14,.04-.28,.07-.42-.04-1.1-.26-2.19-.64-3.23-2.22-5.5,6.33-8.91,8.56-3.41,1.42,3.53,.61,7.56,2.35,10.9,.58,1.04,1.22,2.04,1.92,3,.06,.04,.11,.08,.16,.12l.33,.33c.3,.11,.59,.22,.9,.31l.64,.13c.25-.02,.5-.02,.75,0,.43-.09,.85-.24,1.25-.42,1.15-.51,2.16-1.31,2.92-2.32,1.25-2,2.06-4.24,2.36-6.58,1.1-6.21,1.84-12.48,2.22-18.77,.25-3.9,.43-7.81,.61-11.72,.03-1.89,.2-3.78,.48-5.65,.43-1.56,.74-3.15,.9-4.76,.02-.63,.21-1.24,.56-1.77,.37-2.49,2.67-4.21,5.16-3.88,2.71,.73,5.49,1.22,8.29,1.45h1.6c2.29,.16,4.33,1.44,4.64,4,.27,2.26-1.52,5.13-4,5.13h-.54c-2.07,.15-4.14,.03-6.18-.34-.31-.05-.61-.12-.91-.19-.2,.82-.41,1.64-.53,2.48-.31,2.29-.35,4.6-.46,6.9-.23,4.66-.41,9.33-.85,14-.66,6.91-1,14.75-3.68,21.22-.84,2.05-2.05,3.92-3.59,5.52-2.75,3.48-6.32,6.23-10.39,7.99-2.44,1.1-2.88,2.51-3,4.86-.48,12-5.86,21.6-11.89,30.84-1.1,2.24-2.44,4.35-4,6.3-.28,.34-.6,.65-.91,1-2.69,3.58-6.11,6.35-10.76,6.86-3.67,.39-5.34,2.61-5.42,6.49,0,.9-.1,1.8-.19,2.72,.49,2.97,1.13,5.9,1.94,8.8,9.26-10.73,18.93-19.54,26.55-30.56,16.27-23.57,30.13-48.7,42.7-74.68,2.94-6.07,6.66-10.93,11.65-14.27,.08-.25,.18-.49,.29-.72,.19-.39,.37-.77,.53-1.16,.05-.3,.09-.6,.1-.9,0-.39-.02-.78-.08-1.16ZM23.93,470.74c0,.18-.06,.37-.08,.55s-.08,.56-.13,.83c-.16,.74-.37,1.46-.64,2.17,0,.08-.19,.65-.2,.61l-.06,.46v.56c.09,2-.46,4.42,.61,6.2s2.46,3.67,2.61,5.94c.2,1.96-.9,3.82-2.71,4.6-1.64,.5-3.37,.64-5.07,.42-1.6-.05-3.31,.1-4.71-1.11-1.77-1.52-1.71-3.58-.87-5.49v-.06c.9-2.6,2.5-4.88,3.28-7.54,.27-1.24,.41-2.52,.4-3.79v-.14c-.11-1-.25-2-.45-3-.33-1.91-.94-3.77-1.8-5.51,0,0-.14-.26-.19-.37l-.21-.33c-.26-.41-.55-.81-.86-1.19,0,0-.15-.16-.23-.25l-.24-.22c-.35-.3-.72-.58-1.11-.82-1.19-.94-1.4-2.67-.47-3.87,.35-.5,.88-.86,1.48-1,.21-.09,.42-.15,.64-.19,2.48-.55,5.02-.78,7.56-.68,3,.11,5.89,2,5.68,5.26-.06,.63-.19,1.25-.4,1.84,0,.14,0,.27-.05,.41-.23,.86-.55,1.69-.94,2.48-.3,1-.56,1.91-.86,3.06-.05,.43-.06,.43,.02,.17Zm28.92,29c-3.18,9-6.92,15.8-12.18,21.48-1.78,1.92-4,3.76-6.76,2-2.52-1.59-2.63-4.37-2.1-6.88-.75-3.22,.25-6.84,.37-10,.14-4-1.44-7.85-1.21-11.83,.24-4.21,3.91-6,7.5-7.12,1.47-.45,3.46-.73,4.65-1.78,.73-.73,1.35-1.55,1.84-2.45,.85-2.35,2.54-4.41,5.22-4.2,4.1,.32,4.74,4.37,4.89,8,.21,4.38-.55,8.75-2.22,12.8v-.02Zm-.48-83.18c-5.89-7.42-8.91-17.64-6.4-27.45,3.41-13.29,8.53-26.13,12.14-39.38,2.24-8.23,2.79-16.91,4.65-25.26,3.55-15.89,12.76-22.87,27.71-22.46,19.1,1.35,36,6.32,51.43,15.75,16.08,9.85,22.14,26.93,13.77,44.66-2.31,4.89-4.93,9.63-7.84,14.19-4.36,5.82-9.13,11.31-14.29,16.44-15.64,9.18-31.38,18.18-47.22,27-4.72,2-9.52,3.44-14.87,3-6.77-.43-13.21-3.15-19.08-6.47v-.02Zm28.42,88.27c-1.27,2.8-2.36,6.82-6.37,5.62s-5.5-4.68-5.48-8.89c.05-9.38,5.19-17,7.8-25.55l6-16.86c1.01-3.06,2.79-5.82,5.17-8,2.11-1.87,4.27-1.45,6.43-.34,2.52,1.3,2.92,3.55,2,6.21-1.18,3.6-2,7.37-3.62,10.75-4.29,8.79-7.32,18.15-9,27.79-.56,3.21-1.55,6.34-2.93,9.29v-.02Zm13.37,24.79c-2.58,.46-5.13-.93-6.15-3.34-.93-2.27-.2-4.94,.84-7,1.19-2.41,2.9-4.46,4.3-6.73,1.11-1.96,2-4.04,2.66-6.2,1.56-4.53,1-9.06,1.39-13.75,.15-2.08,.62-4.13,1.39-6.07,.03-3.41,1.4-6.68,3.81-9.09,1.34-1.5,3.45-2.05,5.35-1.4,3.59,.44,6.13,3.7,5.69,7.29-.03,.21-.06,.41-.1,.61-.51,1.93-1.33,3.76-2.44,5.41-.37,.62-.76,1.22-1.15,1.83-.09,.14-.53,.88-.62,1-2,3.91-1.38,8.73-1.51,13-.05,2.78-.51,5.55-1.35,8.2-.88,2.32-1.88,4.59-3,6.8-.87,1.94-1.35,4-2.75,5.71-1.64,1.93-3.88,3.24-6.36,3.73Zm40.51-25.82c-.09,2.65-1.12,5.27-1.84,8.4-1.62,3.22-3.41,6.34-5.36,9.37-5.23,7.4-7.93,15.72-9,24.85-.65,5.69-1.47,11.49-4.53,16.33-1.79,2.83-4,5.91-8,5.17-3.47-.64-4.85-3.61-6-6.69-2-5.31-1.71-10.46,.08-15.89,5.44-16.58,15.42-30.62,22.14-46.48,1.51-3.56,3.74-9.23,8.63-7.33s4.03,7.72,3.88,12.27Zm29.61-4.14c-.16,2.08-1.36,4.36-2.27,6.21-1,2-2.12,4-3.21,6-.4,.7-.81,1.4-1.24,2.09l-.36,.58-.09,.15-.29,.55c-.1,.22-.17,.44-.25,.67-.18,.56-.39,1.12-.63,1.66l-.06,.11v.34c-.14,.81-.37,1.61-.71,2.36,0,0-.06,.1-.08,.15-.28,1.45-.92,2.81-1.87,3.94-2.87,2.19-6.53,3.06-10.08,2.4-3.06-1.36-4.51-4.89-3.28-8,.86-1.82,2.29-3.31,4.08-4.23l1.81-1,.51-.3,.77-.53c.16-.15,.3-.32,.44-.49-.21,.4-.18,.35,.08-.15,.14-.27,.27-.54,.4-.82s.36-.84,.52-1.26c.38-1,.7-2,1.06-3,.27-.76,.56-1.5,.85-2.25,0-.45,.07-.89,.14-1.34,.14-.8,.31-1.6,.4-2.41s.14-1.39,.25-2.08c.15-1.22,.46-2.41,.92-3.55,.12-.27,.25-.53,.4-.78,.2-.45,.44-.88,.72-1.29,.17-.23,.37-.43,.58-.62,.16-.17,.33-.33,.51-.48,.34-.24,.71-.44,1.09-.61,.78-.29,1.62-.39,2.44-.28,.57,.08,1.12,.28,1.62,.58l.17,.06,.22,.09c.43,.22,.84,.47,1.24,.73,.06,.04,.12,.08,.17,.13,.18,.15,.34,.34,.51,.51,.75,.59,1.35,1.34,1.77,2.2,.61,1.23,.87,2.6,.75,3.96Zm11.22-246.84c-.16,.24-.34,.49-.52,.74-4.94,8.93-13.07,15.06-24.89,17.33-9.89,1.9-19.76,3.95-29.87,6-6.36-1.07-12.93-1.33-18.9-3.33-18.53-6.22-24.44-20.81-16.25-38.48,10.39-22.43,20.76-44.86,31.09-67.29,10.26-22.26,41.44-30.48,61-15.67,.91,.7,1.78,1.45,2.61,2.25,1.31,.82,2.56,1.73,3.74,2.73,1.89,1.75,3.39,3.89,4.39,6.26,2.25,5.01,4.04,10.22,5.34,15.56,1.27,5.19,1.28,10.35,1.06,15.66-.2,5.44-.74,10.87-1.61,16.24-1.51,9.63-4.55,18.95-9,27.62-2.44,4.96-5.17,9.76-8.19,14.38h0Zm47.76,228.59c-4.77,6.83-13.14,10.53-21.25,8.07-7.35-2.24-11.37-8.38-11.12-15.93,.22-3.28,.92-6.51,2.08-9.58,1.37-3.99,2.03-8.19,1.93-12.41-.28-8.7-2.86-17.16-3.95-25.77-.75-5.89,8.39-7,9.14-1.12,1.06,8.36,3.51,16.57,3.91,25,.23,3.79-.02,7.6-.74,11.33-.67,3.29-2.09,6.62-2.74,9.7-.29,1.24-.46,2.51-.5,3.79,0,.22,0,.62,.09,1.16,.04,.35,.1,.7,.18,1.05,.12,.4,.27,.79,.45,1.17,.11,.19,.7,1,.65,.94,.72,.71,1.59,1.25,2.55,1.58,5.24,2.1,10.36-1.29,12.84-5.95,3.51-6.61,.83-14.66,.76-21.74,0-2.49,1.31-4.79,4-5.13,2.28-.27,5.11,1.52,5.13,4,.06,5.32,1.09,10.57,1,15.9-.02,4.99-1.56,9.85-4.41,13.94Zm118.59-245.34c-3.98,13.83-10.79,26.68-20,37.74-1.35,2.15-2.73,4.28-4.18,6.37-10.6,15.33-25.63,20.6-42.24,21-3.73,1.23-7.57,2.09-11.47,2.55-8.22,.84-16.45-2.08-24-5.31-5.7-1.64-11.19-3.92-16.38-6.8-1.24-.69-2.5-1.39-3.74-2.15-1.64-.66-3.21-1.49-4.68-2.47-11.59-8-11.29-25.57-10.19-38,.13-1.47,.29-2.93,.44-4.4,.13-5.13,.13-10.33,.58-15.44,.21-2.64,.73-5.25,1.57-7.76,.98-4,2.31-7.9,4-11.66,.57-1.46,1.24-2.87,2-4.24,.2-.65,.46-1.28,.78-1.88,1.05-2.2,2.81-3.98,5-5.06,1.09-.48,2.3-.62,3.47-.4,1.27,.29,2.43,.92,3.35,1.84,2.39,1.46,4.09,3.82,4.72,6.55,.56,4.07-.31,8.59-1.54,12.63-4.61,15.09-3.28,30.3-1.52,45.53,.67,5.84,3.23,10.39,8.5,10.53,2-18.23,1.27-36.76,6.7-53.25,3.19-9.7,8.44-18.72,14.32-28.14,1.05-1.56,2.11-3.12,3.24-4.63,2.32-3.34,5.11-6.32,8.28-8.86,.8-.6,1.64-1.15,2.51-1.65,.91-.53,2-.89,2.82-1.5,1.78-1.31,2.17-3.81,.86-5.59-.24-.33-.53-.62-.86-.86-1.8-1.2-4.4-.51-6.3,.09-2.21,.76-4.33,1.74-6.35,2.91-4.8,2.63-9.59,5.29-14.13,8.35l-.06,.05c-2.42,.05-4.66-1-6.46-3.95-3.95-6.55,.75-10.65,5.93-14.17,37.08-25.22,85.47-4.87,95.88,40.18,2.56,11.01,2.59,21.66-.85,31.85Z"/><path class="cls-1" d="M384.16,387.64c-2.8-2.5-6.37-2.88-9.95-2.49-3.51,.27-6.78,1.84-9.18,4.41-.62,.69-1.17,1.44-1.65,2.24-1.23,1.51-2.34,3.12-3.31,4.81-2.43,4.51-4.6,9.16-6.49,13.93-2.07,4.95-4.58,9.7-7.51,14.2-6.28,9.65-14.53,17.94-25.15,22.5,0,.16,.07,.33,.09,.5,.19,1.37,.37,2.73,.46,4.1,.2,2.67,.15,5.35,.35,8,.33,4.34,.9,8.66,1.72,12.93,1-.94,2.08-1.84,3.09-2.78,20.57-19.19,39.64-39.92,58-61.17,.24-.16,.45-.37,.61-.61l.25-.38,.27-.31v-.12l.06-.09h0c1.96-2.85,2.98-6.24,2.92-9.7-.11-3.81-1.76-7.41-4.58-9.97Z"/><path class="cls-1" d="M70.16,572.63c.16-1.18,.32-2.37,.49-3.56,1.33-9.55,2.47-17.79-.82-25.11-2-4.48-4.19-5.88-4.75-5.88s-2.68,1.15-4.92,4.69c-7.3,11.55-12,25-15.53,36.73l-8.51,43.57-5.55,28.41c-.18,.97-.1,1.97,.23,2.9v.17c-.67,2.47,.79,5.01,3.26,5.68,.19,.05,.39,.09,.59,.12,.78,.39,1.69,.45,2.52,.16,3.33-1.08,6.64-2.24,9.93-3.47,1.3-6.72,2.99-13.36,5.05-19.89l.31-1c1.9-6.41,4-12.77,6-18.93,4.97-15.22,9.7-29.49,11.7-44.59Z"/><path class="cls-1" d="M198.58,510.93c-.7,0-1.4,.08-2.09,.21-7.38,1.35-14,5.75-22.11,14.73-11.23,12.42-18.9,27.59-27,43.65-1.25,2.46-2.49,4.92-3.74,7.37-5.57,11.05-10.2,22.55-13.84,34.37,18.38-12.18,36.56-24.7,54.85-37,3.29-2.22,6.58-4.43,9.89-6.64-.19-2.06-.19-3.82-.19-5,0-7.62,1.35-15.55,4.26-24.93,.39-1.25,.79-2.5,1.19-3.75,1.64-5.09,3.19-9.91,3.69-14.64,.33-3.13-.18-5.8-1.38-7.13-.28-.31-1.11-1.24-3.53-1.24Z"/><path class="cls-1" d="M146.68,160.83c-.19-.34-.45-.63-.77-.86-1.29-.95-2.81-1.54-4.4-1.73-1.1-.09-2.18,.33-2.93,1.14-.16,.16-.31,.34-.45,.52-.68,.44-1.33,.9-2,1.39-.12,.08-.24,.17-.34,.27-9.11,7.39-11.85,19.72-16.27,30.23-5.51,13.06-14.54,24.33-19.58,37.6-2.75,7.22-4.37,14.85-3.6,22.6,.01,1.34,.91,2.5,2.2,2.86,.98,.71,2.35,.48,3.06-.5,.19-.26,.31-.55,.37-.86,5.12-16.61,11.73-32.69,18.7-48.6,3.35-7.64,6.59-15.38,10.3-22.86,3.33-6.73,7.92-13.49,15.36-16,2.33-.77,1.99-4.2,.35-5.2Z"/><path class="cls-1" d="M70.37,381.06c2.82-8.44,5.38-16.96,7.68-25.56,1.11-4.15,2.16-8.31,3.14-12.5,.72-3.48,1.72-6.9,3-10.21,.73-1.83,1.72-3.55,2.94-5.1,1.22-1.51,2.89-2.63,4-4.23,1.85-2.72,1.32-7.47-2.31-8.43h-.05c-.48-.23-.98-.4-1.49-.52-.3-.17-.65-.26-1-.26-.14,.01-.29,.04-.43,.07-1.93-.11-3.82,.52-5.3,1.76-1.04,.86-1.82,1.99-2.25,3.27-.32,.52-.61,1.06-.89,1.61-1.23,2.21-2.19,4.56-2.85,7-2,6.9-3.56,13.91-5.15,20.9s-3.19,14.05-5.12,21c-2.06,7.05-4.51,13.97-7.34,20.75-1.2,2.6-1.79,5.45-1.73,8.31-.25,3,.69,6.15,3.53,7.56,2.48,1.33,5.56,.4,6.89-2.07,.07-.13,.13-.25,.19-.39,.51-1.55,.55-3.22,.1-4.79-.51-2.03-.41-4.17,.3-6.14,1.28-4.09,2.79-8.01,4.14-12.03Z"/></g></g></svg>