<svg width="21" height="21" viewBox="0 0 21 21" fill="none" xmlns="http://www.w3.org/2000/svg">
<path d="M0.258129 0.980734C0.406963 0.557404 0.870794 0.334881 1.29412 0.483715L1.62064 0.59851C2.28855 0.833303 2.85581 1.03272 3.30224 1.25177C3.77959 1.48599 4.18893 1.77452 4.49679 2.22504C4.80227 2.67207 4.92839 3.16251 4.9866 3.70025C5.01265 3.94097 5.0264 4.20741 5.03365 4.50026H16.5584C18.3837 4.50026 20.0269 4.50026 20.5078 5.12544C20.9888 5.75061 20.8008 6.6926 20.4247 8.57658L19.8833 11.2034C19.5419 12.8596 19.3712 13.6878 18.7736 14.1749C18.1759 14.6619 17.3303 14.6619 15.6392 14.6619H9.8944C6.87309 14.6619 5.36243 14.6619 4.42383 13.672C3.48523 12.682 3.41672 11.6303 3.41672 8.4436L3.41672 5.62511C3.41672 4.8235 3.41562 4.28702 3.37103 3.87513C3.32842 3.4815 3.25291 3.28496 3.15513 3.14187C3.05973 3.00226 2.91492 2.8718 2.58643 2.71062C2.23668 2.53901 1.76137 2.37049 1.03812 2.11622L0.755148 2.01673C0.331818 1.86789 0.109295 1.40406 0.258129 0.980734Z" fill="#FAEDD7"/>
<path d="M6.12529 17.5003C7.02275 17.5003 7.75029 18.2278 7.75029 19.1253C7.75029 20.0227 7.02275 20.7503 6.12529 20.7503C5.22782 20.7503 4.50029 20.0227 4.50029 19.1253C4.50029 18.2278 5.22782 17.5003 6.12529 17.5003Z" fill="#FAEDD7"/>
<path d="M15.8753 17.5003C16.7727 17.5003 17.5003 18.2279 17.5003 19.1253C17.5003 20.0228 16.7727 20.7503 15.8753 20.7503C14.9778 20.7503 14.2503 20.0228 14.2503 19.1253C14.2503 18.2279 14.9778 17.5003 15.8753 17.5003Z" fill="#FAEDD7"/>
</svg>
