<svg width="17" height="17" viewBox="0 0 17 17" fill="none" xmlns="http://www.w3.org/2000/svg">
<path d="M10.795 1.4165H8.03664C6.78696 1.41649 5.79713 1.41649 5.02247 1.52105C4.22522 1.62867 3.57993 1.85542 3.07105 2.36635C2.56216 2.87728 2.33632 3.52516 2.22913 4.32561C2.12498 5.10338 2.12499 6.09718 2.125 7.35187V11.4868C2.125 12.555 2.77663 13.4705 3.70258 13.8543C3.65492 13.2101 3.65496 12.3062 3.655 11.5542L3.655 8.07313L3.655 8.00571C3.65495 7.09787 3.6549 6.31565 3.73878 5.68925C3.82868 5.01794 4.0314 4.37445 4.55125 3.8525C5.07111 3.33056 5.71203 3.12702 6.38065 3.03677C7.00455 2.95255 7.78364 2.9526 8.68785 2.95265L8.755 2.95265H10.795L10.8621 2.95265C11.7664 2.9526 12.5438 2.95255 13.1677 3.03677C12.7944 2.08785 11.8728 1.4165 10.795 1.4165Z" fill="white"/>
<path d="M4.67505 8.07295C4.67505 6.14189 4.67505 5.17637 5.27255 4.57646C5.87005 3.97656 6.83172 3.97656 8.75505 3.97656H10.795C12.7184 3.97656 13.68 3.97656 14.2775 4.57646C14.875 5.17637 14.875 6.14189 14.875 8.07295V11.4866C14.875 13.4177 14.875 14.3832 14.2775 14.9831C13.68 15.583 12.7184 15.583 10.795 15.583H8.75505C6.83172 15.583 5.87005 15.583 5.27255 14.9831C4.67505 14.3832 4.67505 13.4177 4.67505 11.4866V8.07295Z" fill="white"/>
</svg>
