<svg width="18" height="20" viewBox="0 0 18 20" fill="none" xmlns="http://www.w3.org/2000/svg">
<path d="M0.348633 4.52381C0.348633 4.12932 0.656187 3.80952 1.03557 3.80952H5.54298C5.5491 2.9683 5.63493 1.81504 6.42081 1.01668C7.03928 0.388386 7.88718 0 8.82094 0C9.75469 0 10.6026 0.388385 11.2211 1.01668C12.0069 1.81504 12.0928 2.9683 12.0989 3.80952H16.6063C16.9857 3.80952 17.2933 4.12932 17.2933 4.52381C17.2933 4.9183 16.9857 5.2381 16.6063 5.2381H1.03557C0.656187 5.2381 0.348633 4.9183 0.348633 4.52381Z" fill="white"/>
<path fill-rule="evenodd" clip-rule="evenodd" d="M8.44026 20H9.20163C11.8212 20 13.131 20 13.9826 19.1141C14.8342 18.2281 14.9213 16.7749 15.0955 13.8685L15.3466 9.6806C15.4412 8.10361 15.4884 7.31511 15.0612 6.81545C14.634 6.31579 13.9126 6.31579 12.4696 6.31579H5.17225C3.72934 6.31579 3.00788 6.31579 2.58067 6.81545C2.15345 7.31511 2.20072 8.10361 2.29526 9.6806L2.54634 13.8685C2.72059 16.7749 2.80772 18.2281 3.65932 19.1141C4.51092 20 5.8207 20 8.44026 20ZM7.17005 10.1885C7.13125 9.75463 6.78526 9.43809 6.39727 9.48148C6.00928 9.52486 5.7262 9.91174 5.765 10.3456L6.23569 15.6087C6.27449 16.0426 6.62047 16.3591 7.00846 16.3157C7.39645 16.2724 7.67953 15.8855 7.64073 15.4516L7.17005 10.1885ZM11.2446 9.48148C11.6326 9.52486 11.9157 9.91174 11.8769 10.3456L11.4062 15.6087C11.3674 16.0426 11.0214 16.3591 10.6334 16.3157C10.2454 16.2724 9.96236 15.8855 10.0012 15.4516L10.4718 10.1885C10.5106 9.75463 10.8566 9.43809 11.2446 9.48148Z" fill="white"/>
</svg>
